<svg width="240" xmlns="http://www.w3.org/2000/svg" height="240" id="screenshot-f54052ba-55f4-80e7-8006-e5fa3e2430c4" viewBox="0 0 240 240" xmlns:xlink="http://www.w3.org/1999/xlink" fill="none" version="1.1"><g id="shape-f54052ba-55f4-80e7-8006-e5fa3e2430c4"><defs><clipPath id="frame-clip-f54052ba-55f4-80e7-8006-e5fa3e2430c4-render-1" class="frame-clip frame-clip-def"><rect rx="0" ry="0" x="0" y="0" width="240" height="240" transform="matrix(1.000000, 0.000000, 0.000000, 1.000000, 0.000000, 0.000000)"/></clipPath></defs><g class="frame-container-wrapper"><g class="frame-container-blur"><g class="frame-container-shadows"><g clip-path="url(#frame-clip-f54052ba-55f4-80e7-8006-e5fa3e2430c4-render-1)" fill="none"><g class="fills" id="fills-f54052ba-55f4-80e7-8006-e5fa3e2430c4"><rect rx="0" ry="0" x="0" y="0" width="240" height="240" transform="matrix(1.000000, 0.000000, 0.000000, 1.000000, 0.000000, 0.000000)" class="frame-background"/></g><g class="frame-children"><g id="shape-f54052ba-55f4-80e7-8006-e5fa2bd4dd81" rx="0" ry="0"><g id="shape-f54052ba-55f4-80e7-8006-e5fa2bd4dd82"><g class="fills" id="fills-f54052ba-55f4-80e7-8006-e5fa2bd4dd82"><path d="M80.000244140625,40.001953125L40,0L40,119.7919921875L80.000244140625,119.7919921875Z" style="fill: rgb(67, 239, 218); fill-opacity: 1;"/></g></g><g id="shape-f54052ba-55f4-80e7-8006-e5fa2bd4dd83"><g class="fills" id="fills-f54052ba-55f4-80e7-8006-e5fa2bd4dd83"><path d="M79.99267578125,119.904052734375L59.998291015625,139.899658203125L40.003662109375,159.89501953125L40.003662109375,239.6962890625L40.21435546875,239.6962890625L40.21435546875,239.999755859375L120.01025390625,239.999755859375L140.0048828125,220.00439453125L160.00048828125,200.0087890625L79.99267578125,200.0087890625Z" style="fill: rgb(67, 239, 218); fill-opacity: 1;"/></g></g><g id="shape-f54052ba-55f4-80e7-8006-e5fa2bd4dd84"><g class="fills" id="fills-f54052ba-55f4-80e7-8006-e5fa2bd4dd84"><path d="M200,80.004150390625L119.99951171875,80.004150390625L80.000732421875,120.006103515625L159.999755859375,120.006103515625L159.999755859375,200.009521484375L179.994140625,180.013671875L199.989990234375,160.017333984375L199.989990234375,120.006103515625L200,120.006103515625Z" style="fill: rgb(67, 239, 218); fill-opacity: 1;"/></g></g></g></g></g></g></g></g></g></svg>
