<svg width="766" xmlns="http://www.w3.org/2000/svg" height="191.347" id="screenshot-a121dd41-c3fa-8029-8006-e59f41d933fe" viewBox="0 0 766 191.347" xmlns:xlink="http://www.w3.org/1999/xlink" fill="none" version="1.1"><g id="shape-a121dd41-c3fa-8029-8006-e59f41d933fe" width="1920" height="1080" rx="0" ry="0" style="fill: rgb(0, 0, 0);"><g id="shape-a121dd41-c3fa-8029-8006-e59f4dcc49da" rx="0" ry="0"><g id="shape-a121dd41-c3fa-8029-8006-e59f41da0b68"><g class="fills" id="fills-a121dd41-c3fa-8029-8006-e59f41da0b68"><path d="M31.89300537109375,31.89300537109375L0,0.00006103515625L0,95.50799560546875L31.89300537109375,95.50799560546875Z" style="fill: rgb(67, 239, 218); fill-opacity: 1;"/></g></g><g id="shape-a121dd41-c3fa-8029-8006-e59f41da6268"><g class="fills" id="fills-a121dd41-c3fa-8029-8006-e59f41da6268"><path d="M31.886962890625,95.59735107421875L15.94500732421875,111.53936767578125L0.00299072265625,127.48126220703125L0.00299072265625,191.10528564453125L0.17095947265625,191.10528564453125L0.17095947265625,191.34735107421875L63.79400634765625,191.34735107421875L79.73602294921875,175.40533447265625L95.67889404296875,159.46331787109375L31.886962890625,159.46331787109375Z" style="fill: rgb(67, 239, 218); fill-opacity: 1;"/></g></g><g id="shape-a121dd41-c3fa-8029-8006-e59f41da6269"><g class="fills" id="fills-a121dd41-c3fa-8029-8006-e59f41da6269"><path d="M127.57147216796875,63.78570556640625L63.78533935546875,63.78570556640625L31.89337158203125,95.67864990234375L95.67840576171875,95.67864990234375L95.67840576171875,159.46368408203125L111.62030029296875,143.52154541015625L127.56341552734375,127.57867431640625L127.56341552734375,95.67864990234375L127.57147216796875,95.67864990234375Z" style="fill: rgb(67, 239, 218); fill-opacity: 1;"/></g></g></g><g id="shape-a121dd41-c3fa-8029-8006-e59f41da626a" clip-path="url(#render-6-a)" rx="0" ry="0" style="fill: rgb(0, 0, 0);"><defs><clipPath id="render-6-a" class="svg-def" transform="matrix(1.000000, 0.000000, 0.000000, 1.000000, -576.999817, -444.325867)"><path transform="matrix(1,0,0,-1,0,1080)" d="M0 1080H1920V0H0Z"/></clipPath></defs><g id="shape-a121dd41-c3fa-8029-8006-e59f41da8c7a"><g class="fills" id="fills-a121dd41-c3fa-8029-8006-e59f41da8c7a"><path d="M237.02972412109375,143.77447509765625C219.42169189453125,143.77447509765625,208.77874755859375,130.73760986328125,208.77874755859375,112.00958251953125C208.77874755859375,93.65155029296875,219.42169189453125,80.43048095703125,237.02972412109375,80.43048095703125C254.63763427734375,80.43048095703125,265.08770751953125,93.65155029296875,265.08770751953125,112.00958251953125C265.08770751953125,130.55352783203125,254.63763427734375,143.77447509765625,237.02972412109375,143.77447509765625M241.24371337890625,64.82354736328125C226.57269287109375,64.82354736328125,214.46771240234375,71.06646728515625,208.59759521484375,82.81646728515625L208.59759521484375,31.81646728515625L191.35662841796875,31.81646728515625L191.35662841796875,157.17559814453125L206.94866943359375,157.17559814453125L208.23065185546875,140.83648681640625C214.09967041015625,153.13555908203125,226.01971435546875,159.37847900390625,240.14764404296875,159.37847900390625C266.18963623046875,159.37847900390625,282.32867431640625,139.91754150390625,282.32867431640625,112.74444580078125C282.32867431640625,85.02252197265625,266.92474365234375,64.82354736328125,241.24371337890625,64.82354736328125" style="fill: rgb(67, 239, 218); fill-opacity: 1;"/></g></g><g id="shape-a121dd41-c3fa-8029-8006-e59f41dad9ca"><g class="fills" id="fills-a121dd41-c3fa-8029-8006-e59f41dad9ca"><path d="M339.37322998046875,79.32794189453125C354.59710693359375,79.32794189453125,364.31915283203125,89.24395751953125,364.31915283203125,104.11505126953125L312.59124755859375,104.11505126953125C314.79412841796875,88.32501220703125,324.32916259765625,79.32794189453125,339.37322998046875,79.32794189453125M340.47515869140625,145.05804443359375C323.41424560546875,145.05804443359375,313.51214599609375,134.59405517578125,312.23016357421875,115.68194580078125L381.56024169921875,115.49810791015625L381.56024169921875,109.07208251953125C381.56024169921875,82.44903564453125,364.86712646484375,64.82403564453125,339.37322998046875,64.82403564453125C313.32513427734375,64.82403564453125,295.53619384765625,84.28704833984375,295.53619384765625,112.37701416015625C295.53619384765625,140.28594970703125,313.69219970703125,159.37799072265625,340.10711669921875,159.37799072265625C362.30316162109375,159.37799072265625,377.34027099609375,148.54705810546875,381.74114990234375,129.27008056640625L365.60223388671875,129.27008056640625C362.66424560546875,139.55010986328125,353.86322021484375,145.05804443359375,340.47515869140625,145.05804443359375" style="fill: rgb(67, 239, 218); fill-opacity: 1;"/></g></g><g id="shape-a121dd41-c3fa-8029-8006-e59f41dad9cb"><g class="fills" id="fills-a121dd41-c3fa-8029-8006-e59f41dad9cb"><path d="M418.05865478515625,81.16595458984375L416.95672607421875,67.57794189453125L400.81768798828125,67.57794189453125L400.81768798828125,157.17596435546875L418.05865478515625,157.17596435546875L418.05865478515625,109.62286376953125C418.05865478515625,92.36492919921875,428.14764404296875,82.44891357421875,444.46771240234375,82.44891357421875L452.17364501953125,82.44891357421875L452.17364501953125,66.66192626953125C448.68768310546875,65.92694091796875,446.12371826171875,65.55889892578125,443.00469970703125,65.55889892578125C430.71270751953125,65.55889892578125,421.72467041015625,71.80194091796875,418.05865478515625,81.16595458984375" style="fill: rgb(67, 239, 218); fill-opacity: 1;"/></g></g><g id="shape-a121dd41-c3fa-8029-8006-e59f41dad9cc"><g class="fills" id="fills-a121dd41-c3fa-8029-8006-e59f41dad9cc"><path d="M468.31817626953125,157.17608642578125L485.55914306640625,157.17608642578125L485.55914306640625,67.39715576171875L468.31817626953125,67.39715576171875Z" style="fill: rgb(67, 239, 218); fill-opacity: 1;"/></g></g><g id="shape-a121dd41-c3fa-8029-8006-e59f41dad9cd"><g class="fills" id="fills-a121dd41-c3fa-8029-8006-e59f41dad9cd"><path d="M510.87322998046875,157.17608642578125L528.1141967773438,157.17608642578125L528.1141967773438,31.81622314453125L510.87322998046875,31.81622314453125Z" style="fill: rgb(67, 239, 218); fill-opacity: 1;"/></g></g><g id="shape-a121dd41-c3fa-8029-8006-e59f41dad9ce"><g class="fills" id="fills-a121dd41-c3fa-8029-8006-e59f41dad9ce"><path d="M553.7881469726562,157.17608642578125L571.0291137695312,157.17608642578125L571.0291137695312,31.81622314453125L553.7881469726562,31.81622314453125Z" style="fill: rgb(67, 239, 218); fill-opacity: 1;"/></g></g><g id="shape-a121dd41-c3fa-8029-8006-e59f41db248d"><g class="fills" id="fills-a121dd41-c3fa-8029-8006-e59f41db248d"><path d="M637.2415161132812,143.95526123046875C619.8204956054688,143.95526123046875,607.8944702148438,130.92120361328125,607.8944702148438,112.19317626953125C607.8944702148438,93.46722412109375,619.8204956054688,80.43121337890625,637.2415161132812,80.43121337890625C654.4824829101562,80.43121337890625,666.5884399414062,93.46722412109375,666.5884399414062,112.19317626953125C666.5884399414062,130.92120361328125,654.4824829101562,143.95526123046875,637.2415161132812,143.95526123046875M637.2415161132812,65.00726318359375C610.2844848632812,65.00726318359375,590.4734497070312,84.47125244140625,590.4734497070312,112.19317626953125C590.4734497070312,139.91827392578125,610.2844848632812,159.37823486328125,637.2415161132812,159.37823486328125C664.0234985351562,159.37823486328125,683.8295288085938,139.91827392578125,683.8295288085938,112.19317626953125C683.8295288085938,84.47125244140625,664.0234985351562,65.00726318359375,637.2415161132812,65.00726318359375" style="fill: rgb(67, 239, 218); fill-opacity: 1;"/></g></g><g id="shape-a121dd41-c3fa-8029-8006-e59f41db248e"><g class="fills" id="fills-a121dd41-c3fa-8029-8006-e59f41db248e"><path d="M743.2571411132812,107.42071533203125L727.4851684570312,103.56365966796875C718.6781616210938,101.36163330078125,714.2781372070312,97.32159423828125,714.2781372070312,91.26263427734375C714.2781372070312,83.00054931640625,720.3272094726562,78.22857666015625,731.1511840820312,78.22857666015625C741.6082153320312,78.22857666015625,747.6581420898438,83.91961669921875,748.0252075195312,92.91656494140625L764.5311889648438,92.91656494140625C764.1641235351562,75.84259033203125,751.3301391601562,64.82366943359375,731.6991577148438,64.82366943359375C711.8942260742188,64.82366943359375,697.9522094726562,75.29058837890625,697.9522094726562,91.81365966796875C697.9522094726562,105.03460693359375,705.4701538085938,112.92864990234375,721.4291381835938,116.78460693359375L737.2072143554688,120.45465087890625C746.5562133789062,122.84356689453125,749.4942016601562,126.51361083984375,749.4942016601562,132.57257080078125C749.4942016601562,140.83660888671875,742.5231323242188,145.79364013671875,730.4171752929688,145.79364013671875C719.0452270507812,145.79364013671875,712.0741577148438,140.28570556640625,712.0741577148438,131.10565185546875L695.5681762695312,131.10565185546875C695.5681762695312,148.17962646484375,708.9562377929688,159.37872314453125,730.0491333007812,159.37872314453125C751.3301391601562,159.37872314453125,766.0001831054688,148.54669189453125,766.0001831054688,131.47271728515625C766.0001831054688,118.06866455078125,758.4811401367188,111.09356689453125,743.2571411132812,107.42071533203125" style="fill: rgb(67, 239, 218); fill-opacity: 1;"/></g></g><g id="shape-a121dd41-c3fa-8029-8006-e59f41db248f"><g class="fills" id="fills-a121dd41-c3fa-8029-8006-e59f41db248f"><path d="M468.31854248046875,44.31280517578125L485.55963134765625,56.80877685546875L485.55963134765625,31.81573486328125L468.31854248046875,31.81573486328125Z" style="fill: rgb(67, 239, 218); fill-opacity: 1;"/></g></g></g></g></svg>