<?xml version="1.0" encoding="UTF-8"?>
<svg xmlns:xodm="http://www.corel.com/coreldraw/odm/2003" xmlns="http://www.w3.org/2000/svg" xmlns:xlink="http://www.w3.org/1999/xlink" version="1.1" id="Layer_1" x="0px" y="0px" viewBox="0 0 2500 2500" style="enable-background:new 0 0 2500 2500;" xml:space="preserve">
<style type="text/css">
	.st0{fill:#2D2D2D;}
	.st1{fill:none;}
</style>
<g id="Layer_x0020_1">
	<g id="_2990407711584">
		<path class="st0" d="M1250,2097c-31,1-62-10-85-31s-38-50-41-81l-14-111c-135-38-214-138-234-297L755,641c-26-4-52-6-79-6    c-39,0-78,5-116,15v1419H322V928c0-155,69-264,196-310v-74c0-85,52-142,128-142c77,0,125,48,137,135l9,68c138,39,219,150,243,331    l112,902c67,13,136,13,203,0l112-902c23-181,105-292,243-331l9-68c12-87,61-135,137-135s128,57,128,142v74c126,45,196,155,196,310    v1141h-238V650c-38-10-77-15-116-15c-26,0-53,1-79,6l-121,936c-20,156-101,258-234,297l-13,111c-2,32-17,61-40,82    c-24,21-55,32-86,30l0,0H1250z M1154,1885l12,96c1,21,11,41,26,55c16,14,36,21,57,20c10,1,21-1,31-4s19-9,27-16s14-15,19-25    c4-9,7-20,7-30l12-96c-64,10-128,10-192,0l0,0H1154z M1982,2028h153V929c0-131-53-222-153-264V2028z M364,2028h154V665    c-100,42-153,133-153,264L364,2028z M799,653l119,919c17,133,80,219,186,256L994,943C974,787,910,692,799,653z M1701,653    c-111,39-175,134-195,290l-110,884c107-38,169-123,186-256L1701,653z M561,606c38-9,77-14,116-13c24,0,49,1,73,4l-7-53    c-9-65-41-98-95-98s-86,38-86,100v61L561,606z M1825,593c39,0,78,4,116,13v-60c0-61-33-100-86-100s-86,33-95,98l-7,53    c24-3,48-5,73-4v-1L1825,593z"></path>
		<rect y="0" class="st1" width="2500" height="2500"></rect>
	</g>
</g>
</svg>
